<?xml version="1.0" standalone="no"?>
<!DOCTYPE svg PUBLIC "-//W3C//DTD SVG 20010904//EN"
 "http://www.w3.org/TR/2001/REC-SVG-20010904/DTD/svg10.dtd">
<svg version="1.0" xmlns="http://www.w3.org/2000/svg"
 width="138.000000pt" height="138.000000pt" viewBox="0 0 138.000000 138.000000"
 preserveAspectRatio="xMidYMid meet">
<metadata>
Created by potrace 1.11, written by Peter Selinger 2001-2013
</metadata>
<g transform="translate(0.000000,138.000000) scale(0.100000,-0.100000)"
fill="#000000" stroke="none">
<path d="M0 690 l0 -690 690 0 690 0 0 690 0 690 -690 0 -690 0 0 -690z m1302
604 c35 -18 68 -61 68 -89 0 -37 -28 -105 -65 -156 -32 -45 -35 -55 -35 -118
0 -79 -26 -173 -61 -223 -15 -20 -24 -48 -25 -73 -4 -119 -82 -238 -192 -292
-72 -35 -207 -44 -291 -19 -30 9 -56 14 -58 12 -2 -2 14 -19 35 -38 32 -29 51
-37 115 -48 93 -16 154 -9 236 24 55 22 60 23 51 6 -17 -32 -82 -79 -131 -95
-26 -9 -67 -33 -91 -54 -50 -44 -102 -58 -154 -41 -34 11 -64 51 -64 85 0 18
-1 18 43 0 20 -8 58 -15 84 -14 43 0 46 1 23 11 -94 41 -113 53 -135 88 -13
21 -27 50 -30 63 -4 16 -22 33 -51 49 -42 22 -62 47 -27 34 74 -29 224 -36
307 -15 91 23 286 170 286 216 0 6 -24 -4 -52 -24 -162 -110 -364 -151 -542
-109 -98 23 -114 35 -46 36 130 1 362 61 468 122 126 72 239 198 257 288 l7
35 -60 -57 c-104 -100 -228 -172 -381 -223 -75 -24 -156 -47 -181 -51 -43 -5
-42 -4 33 29 98 44 199 103 303 178 103 74 138 111 171 176 30 62 26 87 -17
137 -94 107 -403 41 -703 -151 -109 -69 -163 -118 -181 -163 -20 -52 -9 -75
42 -90 78 -21 235 -1 374 50 98 36 112 37 76 6 -56 -50 -177 -116 -268 -147
-81 -27 -110 -32 -200 -33 -131 -1 -190 18 -214 68 -30 65 -15 139 41 202 65
72 351 224 568 302 169 60 282 88 452 112 132 18 169 17 215 -6z"/>
</g>
</svg>
